<?xml version="1.0" encoding="UTF-8"?>
<svg id="_Шар_1" data-name="Шар 1" xmlns="http://www.w3.org/2000/svg" version="1.1" viewBox="0 0 1279.8 1286.7">
  <defs>
    <style>
      .cls-1 {
        fill: #fff;
      }

      .cls-1, .cls-2 {
        fill-rule: evenodd;
        stroke-width: 0px;
      }

      .cls-2 {
        fill: #efefef;
      }
    </style>
  </defs>
  <path class="cls-1" d="M643.4,189.9V0C288,0,0,288,0,643.4s288,643.3,643.4,643.3v-189.9h0c-250.5,0-453.5-203-453.5-453.5s203-453.5,453.5-453.5h0ZM643.4,380.4h0c-145.3,0-263,117.7-263,263s117.7,262.9,263,262.9h0V380.4Z"/>
  <path class="cls-2" d="M643.4,380.5v168h636.5c-8.7-59-25.5-115.4-49.1-168h-587.4ZM1099.5,189.6C983,72.5,821.7,0,643.4,0v189.6h456.1ZM643.4,1286.7v-189.9h456.4c-116.6,117.3-278,189.9-456.4,189.9ZM643.4,906.2h587.4c23.6-52.6,40.4-109,49.1-168h-636.5v168Z"/>
</svg>